# xmcd
#
# Track frame offsets:
# 150
# 13769
# 30322
# 54354
# 65938
# 75821
# 88914
# 100336
# 129923
# 144654
# 151590
#
# Disc length: 2338 seconds
#
# Revision: 0
# Processed by: cddbd v1.5.1PL2 Copyright (c) Steve Scherf et al.
# Submitted via: Audion 3.0.2 (http://www.panic.com/audion/)
#
DISCID=8009200b
DTITLE=o - o
DYEAR=1900
DGENRE=
TTITLE0=o
TTITLE1=o
TTITLE2=0
TTITLE3=o
TTITLE4=o
TTITLE5=o
TTITLE6=o
TTITLE7=o
TTITLE8=o
TTITLE9=o
TTITLE10=o
EXTD=
EXTT0=
EXTT1=
EXTT2=
EXTT3=
EXTT4=
EXTT5=
EXTT6=
EXTT7=
EXTT8=
EXTT9=
EXTT10=
PLAYORDER=
